<?xml version="1.0" standalone="no"?><!DOCTYPE svg PUBLIC "-//W3C//DTD SVG 1.1//EN" "http://www.w3.org/Graphics/SVG/1.1/DTD/svg11.dtd"><svg t="1610465655543" class="icon" viewBox="0 0 1051 1024" version="1.1" xmlns="http://www.w3.org/2000/svg" p-id="8813" xmlns:xlink="http://www.w3.org/1999/xlink" width="205.2734375" height="200"><defs><style type="text/css"></style></defs><path d="M564.915892 452.940108V220.215351c-10.793514 0-24.354595-2.684541-32.463568-2.68454h-2.712216c-13.533405 2.684541-27.066811 2.684541-45.996973 5.396757v230.01254H7.472432V268.924541c0-29.751351 24.354595-51.39373 51.421406-51.39373H275.372973c-56.818162-13.561081-100.130595-37.915676-102.815135-83.884973-2.712216-54.133622 59.502703-143.443027 148.812108-121.772973 92.021622 21.642378 156.948757 91.993946 205.657946 154.23654 48.709189-62.242595 121.772973-143.415351 216.506811-156.948756 83.857297-10.821189 148.812108 70.351568 140.703135 124.485189-8.108973 45.996973-51.421405 73.063784-108.239568 83.857297h213.766919c29.779027 0 51.421405 24.354595 51.421406 51.421406v184.043243H564.915892zM332.191135 60.60973c-43.284757-16.245622-70.351568 2.684541-89.28173 32.463567-10.821189 16.245622-21.642378 40.600216-5.424432 56.818162 43.312432 43.312432 159.688649 40.600216 240.83373 32.491244-37.860324-46.024649-83.857297-97.418378-146.127568-121.772973z m487.091892 89.281729c29.779027-40.572541-29.751351-121.772973-94.706162-91.993945-62.242595 29.751351-105.527351 75.776-146.127568 124.485189 32.491243 2.684541 67.667027 2.684541 100.130595 2.68454 43.284757-2.684541 119.060757-5.396757 140.703135-35.148108zM486.455351 1007.699027H99.494054c-27.066811 0-48.709189-21.642378-48.709189-48.709189V490.828108h435.670486v516.870919z m511.446487-48.709189c0 27.066811-21.642378 48.709189-48.709189 48.709189H562.231351V493.540324h435.670487v465.449514z" fill="#FE5156" p-id="8814"></path></svg>